<?xml version="1.0" encoding="UTF-8" standalone="yes"?><svg xmlns="http://www.w3.org/2000/svg" xmlns:xlink="http://www.w3.org/1999/xlink" height="738px" style="width:857px;height:738px;" version="1.1" viewBox="0 0 857 738" width="857px"><defs><filter height="300%" id="f1" width="300%" x="-1" y="-1"><feGaussianBlur result="blurOut" stdDeviation="2.0"/><feColorMatrix in="blurOut" result="blurOut2" type="matrix" values="0 0 0 0 0 0 0 0 0 0 0 0 0 0 0 0 0 0 .4 0"/><feOffset dx="4.0" dy="4.0" in="blurOut2" result="blurOut3"/><feBlend in="SourceGraphic" in2="blurOut3" mode="normal"/></filter></defs><g><rect fill="#FFFFFF" filter="url(#f1)" height="620.2793" style="stroke: #2980B9; stroke-width: 1.0;" width="10" x="164.5" y="69.4883"/><rect fill="#FFFFFF" filter="url(#f1)" height="346.4844" style="stroke: #2980B9; stroke-width: 1.0;" width="10" x="462" y="152.4199"/><rect fill="#FFFFFF" filter="url(#f1)" height="70.3105" style="stroke: #2980B9; stroke-width: 1.0;" width="10" x="467" y="189.7305"/><rect fill="#FFFFFF" filter="url(#f1)" height="28" style="stroke: #2980B9; stroke-width: 1.0;" width="10" x="472" y="232.041"/><rect fill="#FFFFFF" filter="url(#f1)" height="70.3105" style="stroke: #2980B9; stroke-width: 1.0;" width="10" x="467" y="304.3516"/><rect fill="#FFFFFF" filter="url(#f1)" height="28" style="stroke: #2980B9; stroke-width: 1.0;" width="10" x="472" y="346.6621"/><rect fill="#FFFFFF" filter="url(#f1)" height="279.7949" style="stroke: #2980B9; stroke-width: 1.0;" width="10" x="624" y="410.9727"/><rect fill="#FFFFFF" filter="url(#f1)" height="250.4844" style="stroke: #2980B9; stroke-width: 1.0;" width="10" x="703.5" y="440.2832"/><rect fill="#FFFFFF" filter="url(#f1)" height="597.9688" style="stroke: #000000; stroke-width: 2.0;" width="785.5" x="57" y="84.7988"/><rect fill="#FFFFFF" filter="url(#f1)" height="88.9316" style="stroke: #000000; stroke-width: 2.0;" width="244" x="588.5" y="586.8359"/><line style="stroke: #2980B9; stroke-width: 1.0; stroke-dasharray: 5.0,5.0;" x1="32" x2="32" y1="38.4883" y2="699.7676"/><line style="stroke: #2980B9; stroke-width: 1.0; stroke-dasharray: 5.0,5.0;" x1="169" x2="169" y1="38.4883" y2="699.7676"/><line style="stroke: #2980B9; stroke-width: 1.0; stroke-dasharray: 5.0,5.0;" x1="352" x2="352" y1="38.4883" y2="699.7676"/><line style="stroke: #2980B9; stroke-width: 1.0; stroke-dasharray: 5.0,5.0;" x1="467" x2="467" y1="38.4883" y2="699.7676"/><line style="stroke: #2980B9; stroke-width: 1.0; stroke-dasharray: 5.0,5.0;" x1="628.5" x2="628.5" y1="38.4883" y2="699.7676"/><line style="stroke: #2980B9; stroke-width: 1.0; stroke-dasharray: 5.0,5.0;" x1="708.5" x2="708.5" y1="38.4883" y2="699.7676"/><rect fill="#BDE3FF" filter="url(#f1)" height="30.4883" style="stroke: #2980B9; stroke-width: 1.5;" width="45" x="8" y="3"/><text fill="#000000" font-family="sans-serif" font-size="14" lengthAdjust="spacingAndGlyphs" textLength="31" x="15" y="23.5352">User</text><rect fill="#BDE3FF" filter="url(#f1)" height="30.4883" style="stroke: #2980B9; stroke-width: 1.5;" width="45" x="8" y="698.7676"/><text fill="#000000" font-family="sans-serif" font-size="14" lengthAdjust="spacingAndGlyphs" textLength="31" x="15" y="719.3027">User</text><rect fill="#BDE3FF" filter="url(#f1)" height="30.4883" style="stroke: #2980B9; stroke-width: 1.5;" width="201" x="67" y="3"/><text fill="#000000" font-family="sans-serif" font-size="14" lengthAdjust="spacingAndGlyphs" textLength="187" x="74" y="23.5352">ImportCommandController</text><rect fill="#BDE3FF" filter="url(#f1)" height="30.4883" style="stroke: #2980B9; stroke-width: 1.5;" width="201" x="67" y="698.7676"/><text fill="#000000" font-family="sans-serif" font-size="14" lengthAdjust="spacingAndGlyphs" textLength="187" x="74" y="719.3027">ImportCommandController</text><rect fill="#BDE3FF" filter="url(#f1)" height="30.4883" style="stroke: #2980B9; stroke-width: 1.5;" width="137" x="282" y="3"/><text fill="#000000" font-family="sans-serif" font-size="14" lengthAdjust="spacingAndGlyphs" textLength="123" x="289" y="23.5352">ResourceManager</text><rect fill="#BDE3FF" filter="url(#f1)" height="30.4883" style="stroke: #2980B9; stroke-width: 1.5;" width="137" x="282" y="698.7676"/><text fill="#000000" font-family="sans-serif" font-size="14" lengthAdjust="spacingAndGlyphs" textLength="123" x="289" y="719.3027">ResourceManager</text><rect fill="#BDE3FF" filter="url(#f1)" height="30.4883" style="stroke: #2980B9; stroke-width: 1.5;" width="64" x="433" y="3"/><text fill="#000000" font-family="sans-serif" font-size="14" lengthAdjust="spacingAndGlyphs" textLength="50" x="440" y="23.5352">Factory</text><rect fill="#BDE3FF" filter="url(#f1)" height="30.4883" style="stroke: #2980B9; stroke-width: 1.5;" width="64" x="433" y="698.7676"/><text fill="#000000" font-family="sans-serif" font-size="14" lengthAdjust="spacingAndGlyphs" textLength="50" x="440" y="719.3027">Factory</text><rect fill="#BDE3FF" filter="url(#f1)" height="30.4883" style="stroke: #2980B9; stroke-width: 1.5;" width="57" x="598.5" y="3"/><text fill="#000000" font-family="sans-serif" font-size="14" lengthAdjust="spacingAndGlyphs" textLength="43" x="605.5" y="23.5352">Parser</text><rect fill="#BDE3FF" filter="url(#f1)" height="30.4883" style="stroke: #2980B9; stroke-width: 1.5;" width="57" x="598.5" y="698.7676"/><text fill="#000000" font-family="sans-serif" font-size="14" lengthAdjust="spacingAndGlyphs" textLength="43" x="605.5" y="719.3027">Parser</text><rect fill="#BDE3FF" filter="url(#f1)" height="30.4883" style="stroke: #2980B9; stroke-width: 1.5;" width="74" x="669.5" y="3"/><text fill="#000000" font-family="sans-serif" font-size="14" lengthAdjust="spacingAndGlyphs" textLength="60" x="676.5" y="23.5352">Importer</text><rect fill="#BDE3FF" filter="url(#f1)" height="30.4883" style="stroke: #2980B9; stroke-width: 1.5;" width="74" x="669.5" y="698.7676"/><text fill="#000000" font-family="sans-serif" font-size="14" lengthAdjust="spacingAndGlyphs" textLength="60" x="676.5" y="719.3027">Importer</text><rect fill="#FFFFFF" filter="url(#f1)" height="620.2793" style="stroke: #2980B9; stroke-width: 1.0;" width="10" x="164.5" y="69.4883"/><rect fill="#FFFFFF" filter="url(#f1)" height="346.4844" style="stroke: #2980B9; stroke-width: 1.0;" width="10" x="462" y="152.4199"/><rect fill="#FFFFFF" filter="url(#f1)" height="70.3105" style="stroke: #2980B9; stroke-width: 1.0;" width="10" x="467" y="189.7305"/><rect fill="#FFFFFF" filter="url(#f1)" height="28" style="stroke: #2980B9; stroke-width: 1.0;" width="10" x="472" y="232.041"/><rect fill="#FFFFFF" filter="url(#f1)" height="70.3105" style="stroke: #2980B9; stroke-width: 1.0;" width="10" x="467" y="304.3516"/><rect fill="#FFFFFF" filter="url(#f1)" height="28" style="stroke: #2980B9; stroke-width: 1.0;" width="10" x="472" y="346.6621"/><rect fill="#FFFFFF" filter="url(#f1)" height="279.7949" style="stroke: #2980B9; stroke-width: 1.0;" width="10" x="624" y="410.9727"/><rect fill="#FFFFFF" filter="url(#f1)" height="250.4844" style="stroke: #2980B9; stroke-width: 1.0;" width="10" x="703.5" y="440.2832"/><polygon fill="#2980B9" points="152.5,65.4883,162.5,69.4883,152.5,73.4883,156.5,69.4883" style="stroke: #2980B9; stroke-width: 1.0;"/><line style="stroke: #2980B9; stroke-width: 1.0;" x1="32.5" x2="158.5" y1="69.4883" y2="69.4883"/><text fill="#000000" font-family="sans-serif" font-size="13" lengthAdjust="spacingAndGlyphs" textLength="27" x="39.5" y="65.0566">files</text><rect fill="none" height="597.9688" style="stroke: #000000; stroke-width: 2.0;" width="785.5" x="57" y="84.7988"/><polygon fill="#BDE3FF" points="57,84.7988,131,84.7988,131,91.7988,121,101.7988,57,101.7988,57,84.7988" style="stroke: #000000; stroke-width: 2.0;"/><text fill="#000000" font-family="sans-serif" font-size="13" font-weight="bold" lengthAdjust="spacingAndGlyphs" textLength="29" x="72" y="98.3672">loop</text><text fill="#000000" font-family="sans-serif" font-size="11" font-weight="bold" lengthAdjust="spacingAndGlyphs" textLength="77" x="146" y="97.4336">[for each file]</text><polygon fill="#2980B9" points="340.5,119.1094,350.5,123.1094,340.5,127.1094,344.5,123.1094" style="stroke: #2980B9; stroke-width: 1.0;"/><line style="stroke: #2980B9; stroke-width: 1.0;" x1="174.5" x2="346.5" y1="123.1094" y2="123.1094"/><text fill="#000000" font-family="sans-serif" font-size="13" lengthAdjust="spacingAndGlyphs" textLength="127" x="181.5" y="118.6777">importResource(file)</text><polygon fill="#2980B9" points="450,148.4199,460,152.4199,450,156.4199,454,152.4199" style="stroke: #2980B9; stroke-width: 1.0;"/><line style="stroke: #2980B9; stroke-width: 1.0;" x1="174.5" x2="456" y1="152.4199" y2="152.4199"/><text fill="#000000" font-family="sans-serif" font-size="13" lengthAdjust="spacingAndGlyphs" textLength="181" x="181.5" y="147.9883">getImporterForFile(Resource)</text><line style="stroke: #2980B9; stroke-width: 1.0;" x1="472" x2="519" y1="177.041" y2="177.041"/><line style="stroke: #2980B9; stroke-width: 1.0;" x1="519" x2="519" y1="177.041" y2="190.041"/><line style="stroke: #2980B9; stroke-width: 1.0;" x1="478" x2="519" y1="190.041" y2="190.041"/><polygon fill="#2980B9" points="488,186.041,478,190.041,488,194.041,484,190.041" style="stroke: #2980B9; stroke-width: 1.0;"/><text fill="#000000" font-family="sans-serif" font-size="13" lengthAdjust="spacingAndGlyphs" textLength="58" x="484" y="172.2988">getParser</text><line style="stroke: #2980B9; stroke-width: 1.0;" x1="482" x2="524" y1="224.3516" y2="224.3516"/><line style="stroke: #2980B9; stroke-width: 1.0;" x1="524" x2="524" y1="224.3516" y2="237.3516"/><line style="stroke: #2980B9; stroke-width: 1.0;" x1="483" x2="524" y1="237.3516" y2="237.3516"/><polygon fill="#2980B9" points="493,233.3516,483,237.3516,493,241.3516,489,237.3516" style="stroke: #2980B9; stroke-width: 1.0;"/><text fill="#000000" font-family="sans-serif" font-size="13" lengthAdjust="spacingAndGlyphs" textLength="117" x="489" y="219.6094">getPossibleParsers</text><line style="stroke: #2980B9; stroke-width: 1.0;" x1="472" x2="519" y1="291.6621" y2="291.6621"/><line style="stroke: #2980B9; stroke-width: 1.0;" x1="519" x2="519" y1="291.6621" y2="304.6621"/><line style="stroke: #2980B9; stroke-width: 1.0;" x1="478" x2="519" y1="304.6621" y2="304.6621"/><polygon fill="#2980B9" points="488,300.6621,478,304.6621,488,308.6621,484,304.6621" style="stroke: #2980B9; stroke-width: 1.0;"/><text fill="#000000" font-family="sans-serif" font-size="13" lengthAdjust="spacingAndGlyphs" textLength="74" x="484" y="286.9199">getImporter</text><line style="stroke: #2980B9; stroke-width: 1.0;" x1="482" x2="524" y1="338.9727" y2="338.9727"/><line style="stroke: #2980B9; stroke-width: 1.0;" x1="524" x2="524" y1="338.9727" y2="351.9727"/><line style="stroke: #2980B9; stroke-width: 1.0;" x1="483" x2="524" y1="351.9727" y2="351.9727"/><polygon fill="#2980B9" points="493,347.9727,483,351.9727,493,355.9727,489,351.9727" style="stroke: #2980B9; stroke-width: 1.0;"/><text fill="#000000" font-family="sans-serif" font-size="13" lengthAdjust="spacingAndGlyphs" textLength="133" x="489" y="334.2305">getPossibleImporters</text><polygon fill="#2980B9" points="612,406.9727,622,410.9727,612,414.9727,616,410.9727" style="stroke: #2980B9; stroke-width: 1.0;"/><line style="stroke: #2980B9; stroke-width: 1.0;" x1="472" x2="618" y1="410.9727" y2="410.9727"/><text fill="#000000" font-family="sans-serif" font-size="13" lengthAdjust="spacingAndGlyphs" textLength="90" x="479" y="406.541">new(Resource)</text><polygon fill="#2980B9" points="691.5,436.2832,701.5,440.2832,691.5,444.2832,695.5,440.2832" style="stroke: #2980B9; stroke-width: 1.0;"/><line style="stroke: #2980B9; stroke-width: 1.0;" x1="472" x2="697.5" y1="440.2832" y2="440.2832"/><text fill="#000000" font-family="sans-serif" font-size="13" lengthAdjust="spacingAndGlyphs" textLength="25" x="479" y="435.8516">new</text><polygon fill="#2980B9" points="691.5,465.5938,701.5,469.5938,691.5,473.5938,695.5,469.5938" style="stroke: #2980B9; stroke-width: 1.0;"/><line style="stroke: #2980B9; stroke-width: 1.0;" x1="472" x2="697.5" y1="469.5938" y2="469.5938"/><text fill="#000000" font-family="sans-serif" font-size="13" lengthAdjust="spacingAndGlyphs" textLength="103" x="479" y="465.1621">setParser(Parser)</text><polygon fill="#2980B9" points="185.5,494.9043,175.5,498.9043,185.5,502.9043,181.5,498.9043" style="stroke: #2980B9; stroke-width: 1.0;"/><line style="stroke: #2980B9; stroke-width: 1.0;" x1="179.5" x2="466" y1="498.9043" y2="498.9043"/><text fill="#000000" font-family="sans-serif" font-size="13" lengthAdjust="spacingAndGlyphs" textLength="54" x="191.5" y="494.4727">importer</text><polygon fill="#2980B9" points="691.5,524.2148,701.5,528.2148,691.5,532.2148,695.5,528.2148" style="stroke: #2980B9; stroke-width: 1.0;"/><line style="stroke: #2980B9; stroke-width: 1.0;" x1="174.5" x2="697.5" y1="528.2148" y2="528.2148"/><text fill="#000000" font-family="sans-serif" font-size="13" lengthAdjust="spacingAndGlyphs" textLength="42" x="181.5" y="523.7832">import</text><rect fill="#BDE3FF" filter="url(#f1)" height="3" style="stroke: #BDE3FF; stroke-width: 1.0;" width="849.5" x="3" y="557.1807"/><line style="stroke: #000000; stroke-width: 1.0;" x1="3" x2="852.5" y1="557.1807" y2="557.1807"/><line style="stroke: #000000; stroke-width: 1.0;" x1="3" x2="852.5" y1="560.1807" y2="560.1807"/><rect fill="#BDE3FF" filter="url(#f1)" height="23.3105" style="stroke: #000000; stroke-width: 2.0;" width="190" x="332.75" y="546.5254"/><text fill="#000000" font-family="sans-serif" font-size="13" font-weight="bold" lengthAdjust="spacingAndGlyphs" textLength="172" x="338.75" y="563.0938">Rest is up to the Importer</text><rect fill="none" height="88.9316" style="stroke: #000000; stroke-width: 2.0;" width="244" x="588.5" y="586.8359"/><polygon fill="#BDE3FF" points="588.5,586.8359,662.5,586.8359,662.5,593.8359,652.5,603.8359,588.5,603.8359,588.5,586.8359" style="stroke: #000000; stroke-width: 2.0;"/><text fill="#000000" font-family="sans-serif" font-size="13" font-weight="bold" lengthAdjust="spacingAndGlyphs" textLength="29" x="603.5" y="600.4043">loop</text><text fill="#000000" font-family="sans-serif" font-size="11" font-weight="bold" lengthAdjust="spacingAndGlyphs" textLength="137" x="677.5" y="599.4707">[for Importer -&gt; Parser]</text><polygon fill="#2980B9" points="691.5,621.1465,701.5,625.1465,691.5,629.1465,695.5,625.1465" style="stroke: #2980B9; stroke-width: 1.0;"/><line style="stroke: #2980B9; stroke-width: 1.0;" x1="634" x2="697.5" y1="625.1465" y2="625.1465"/><text fill="#000000" font-family="sans-serif" font-size="13" lengthAdjust="spacingAndGlyphs" textLength="25" x="641" y="620.7148">Info</text><line style="stroke: #2980B9; stroke-width: 1.0;" x1="713.5" x2="755.5" y1="654.7676" y2="654.7676"/><line style="stroke: #2980B9; stroke-width: 1.0;" x1="755.5" x2="755.5" y1="654.7676" y2="667.7676"/><line style="stroke: #2980B9; stroke-width: 1.0;" x1="714.5" x2="755.5" y1="667.7676" y2="667.7676"/><polygon fill="#2980B9" points="724.5,663.7676,714.5,667.7676,724.5,671.7676,720.5,667.7676" style="stroke: #2980B9; stroke-width: 1.0;"/><text fill="#000000" font-family="sans-serif" font-size="13" lengthAdjust="spacingAndGlyphs" textLength="100" x="720.5" y="650.0254">handleInfo(Info)</text></g></svg>