<?xml version="1.0" encoding="UTF-8" standalone="yes"?><svg xmlns="http://www.w3.org/2000/svg" xmlns:xlink="http://www.w3.org/1999/xlink" height="489px" style="width:843px;height:489px;" version="1.1" viewBox="0 0 843 489" width="843px"><defs><filter height="300%" id="f1" width="300%" x="-1" y="-1"><feGaussianBlur result="blurOut" stdDeviation="2.0"/><feColorMatrix in="blurOut" result="blurOut2" type="matrix" values="0 0 0 0 0 0 0 0 0 0 0 0 0 0 0 0 0 0 .4 0"/><feOffset dx="4.0" dy="4.0" in="blurOut2" result="blurOut3"/><feBlend in="SourceGraphic" in2="blurOut3" mode="normal"/></filter></defs><g><rect fill="#FFFFFF" filter="url(#f1)" height="371.416" style="stroke: #2980B9; stroke-width: 1.0;" width="10" x="164.5" y="69.4883"/><rect fill="#FFFFFF" filter="url(#f1)" height="171.2422" style="stroke: #2980B9; stroke-width: 1.0;" width="10" x="462" y="152.4199"/><rect fill="#FFFFFF" filter="url(#f1)" height="190.5527" style="stroke: #2980B9; stroke-width: 1.0;" width="10" x="619" y="251.3516"/><rect fill="#FFFFFF" filter="url(#f1)" height="176.5527" style="stroke: #2980B9; stroke-width: 1.0;" width="10" x="774" y="265.3516"/><rect fill="#FFFFFF" filter="url(#f1)" height="349.1055" style="stroke: #000000; stroke-width: 2.0;" width="771" x="57" y="84.7988"/><line style="stroke: #2980B9; stroke-width: 1.0; stroke-dasharray: 5.0,5.0;" x1="32" x2="32" y1="38.4883" y2="450.9043"/><line style="stroke: #2980B9; stroke-width: 1.0; stroke-dasharray: 5.0,5.0;" x1="169" x2="169" y1="38.4883" y2="450.9043"/><line style="stroke: #2980B9; stroke-width: 1.0; stroke-dasharray: 5.0,5.0;" x1="352" x2="352" y1="38.4883" y2="450.9043"/><line style="stroke: #2980B9; stroke-width: 1.0; stroke-dasharray: 5.0,5.0;" x1="467" x2="467" y1="38.4883" y2="450.9043"/><line style="stroke: #2980B9; stroke-width: 1.0; stroke-dasharray: 5.0,5.0;" x1="623.5" x2="623.5" y1="38.4883" y2="450.9043"/><line style="stroke: #2980B9; stroke-width: 1.0; stroke-dasharray: 5.0,5.0;" x1="779" x2="779" y1="38.4883" y2="450.9043"/><rect fill="#BDE3FF" filter="url(#f1)" height="30.4883" style="stroke: #2980B9; stroke-width: 1.5;" width="45" x="8" y="3"/><text fill="#000000" font-family="sans-serif" font-size="14" lengthAdjust="spacingAndGlyphs" textLength="31" x="15" y="23.5352">User</text><rect fill="#BDE3FF" filter="url(#f1)" height="30.4883" style="stroke: #2980B9; stroke-width: 1.5;" width="45" x="8" y="449.9043"/><text fill="#000000" font-family="sans-serif" font-size="14" lengthAdjust="spacingAndGlyphs" textLength="31" x="15" y="470.4395">User</text><rect fill="#BDE3FF" filter="url(#f1)" height="30.4883" style="stroke: #2980B9; stroke-width: 1.5;" width="201" x="67" y="3"/><text fill="#000000" font-family="sans-serif" font-size="14" lengthAdjust="spacingAndGlyphs" textLength="187" x="74" y="23.5352">ImportCommandController</text><rect fill="#BDE3FF" filter="url(#f1)" height="30.4883" style="stroke: #2980B9; stroke-width: 1.5;" width="201" x="67" y="449.9043"/><text fill="#000000" font-family="sans-serif" font-size="14" lengthAdjust="spacingAndGlyphs" textLength="187" x="74" y="470.4395">ImportCommandController</text><rect fill="#BDE3FF" filter="url(#f1)" height="30.4883" style="stroke: #2980B9; stroke-width: 1.5;" width="137" x="282" y="3"/><text fill="#000000" font-family="sans-serif" font-size="14" lengthAdjust="spacingAndGlyphs" textLength="123" x="289" y="23.5352">ResourceManager</text><rect fill="#BDE3FF" filter="url(#f1)" height="30.4883" style="stroke: #2980B9; stroke-width: 1.5;" width="137" x="282" y="449.9043"/><text fill="#000000" font-family="sans-serif" font-size="14" lengthAdjust="spacingAndGlyphs" textLength="123" x="289" y="470.4395">ResourceManager</text><rect fill="#BDE3FF" filter="url(#f1)" height="30.4883" style="stroke: #2980B9; stroke-width: 1.5;" width="64" x="433" y="3"/><text fill="#000000" font-family="sans-serif" font-size="14" lengthAdjust="spacingAndGlyphs" textLength="50" x="440" y="23.5352">Factory</text><rect fill="#BDE3FF" filter="url(#f1)" height="30.4883" style="stroke: #2980B9; stroke-width: 1.5;" width="64" x="433" y="449.9043"/><text fill="#000000" font-family="sans-serif" font-size="14" lengthAdjust="spacingAndGlyphs" textLength="50" x="440" y="470.4395">Factory</text><rect fill="#BDE3FF" filter="url(#f1)" height="30.4883" style="stroke: #2980B9; stroke-width: 1.5;" width="57" x="593.5" y="3"/><text fill="#000000" font-family="sans-serif" font-size="14" lengthAdjust="spacingAndGlyphs" textLength="43" x="600.5" y="23.5352">Parser</text><rect fill="#BDE3FF" filter="url(#f1)" height="30.4883" style="stroke: #2980B9; stroke-width: 1.5;" width="57" x="593.5" y="449.9043"/><text fill="#000000" font-family="sans-serif" font-size="14" lengthAdjust="spacingAndGlyphs" textLength="43" x="600.5" y="470.4395">Parser</text><rect fill="#BDE3FF" filter="url(#f1)" height="30.4883" style="stroke: #2980B9; stroke-width: 1.5;" width="74" x="740" y="3"/><text fill="#000000" font-family="sans-serif" font-size="14" lengthAdjust="spacingAndGlyphs" textLength="60" x="747" y="23.5352">Importer</text><rect fill="#BDE3FF" filter="url(#f1)" height="30.4883" style="stroke: #2980B9; stroke-width: 1.5;" width="74" x="740" y="449.9043"/><text fill="#000000" font-family="sans-serif" font-size="14" lengthAdjust="spacingAndGlyphs" textLength="60" x="747" y="470.4395">Importer</text><rect fill="#FFFFFF" filter="url(#f1)" height="371.416" style="stroke: #2980B9; stroke-width: 1.0;" width="10" x="164.5" y="69.4883"/><rect fill="#FFFFFF" filter="url(#f1)" height="171.2422" style="stroke: #2980B9; stroke-width: 1.0;" width="10" x="462" y="152.4199"/><rect fill="#FFFFFF" filter="url(#f1)" height="190.5527" style="stroke: #2980B9; stroke-width: 1.0;" width="10" x="619" y="251.3516"/><rect fill="#FFFFFF" filter="url(#f1)" height="176.5527" style="stroke: #2980B9; stroke-width: 1.0;" width="10" x="774" y="265.3516"/><polygon fill="#2980B9" points="152.5,65.4883,162.5,69.4883,152.5,73.4883,156.5,69.4883" style="stroke: #2980B9; stroke-width: 1.0;"/><line style="stroke: #2980B9; stroke-width: 1.0;" x1="32.5" x2="158.5" y1="69.4883" y2="69.4883"/><text fill="#000000" font-family="sans-serif" font-size="13" lengthAdjust="spacingAndGlyphs" textLength="27" x="39.5" y="65.0566">files</text><rect fill="none" height="349.1055" style="stroke: #000000; stroke-width: 2.0;" width="771" x="57" y="84.7988"/><polygon fill="#BDE3FF" points="57,84.7988,131,84.7988,131,91.7988,121,101.7988,57,101.7988,57,84.7988" style="stroke: #000000; stroke-width: 2.0;"/><text fill="#000000" font-family="sans-serif" font-size="13" font-weight="bold" lengthAdjust="spacingAndGlyphs" textLength="29" x="72" y="98.3672">loop</text><text fill="#000000" font-family="sans-serif" font-size="11" font-weight="bold" lengthAdjust="spacingAndGlyphs" textLength="77" x="146" y="97.4336">[for each file]</text><polygon fill="#2980B9" points="340.5,119.1094,350.5,123.1094,340.5,127.1094,344.5,123.1094" style="stroke: #2980B9; stroke-width: 1.0;"/><line style="stroke: #2980B9; stroke-width: 1.0;" x1="174.5" x2="346.5" y1="123.1094" y2="123.1094"/><text fill="#000000" font-family="sans-serif" font-size="13" lengthAdjust="spacingAndGlyphs" textLength="127" x="181.5" y="118.6777">importResource(file)</text><polygon fill="#2980B9" points="450,148.4199,460,152.4199,450,156.4199,454,152.4199" style="stroke: #2980B9; stroke-width: 1.0;"/><line style="stroke: #2980B9; stroke-width: 1.0;" x1="174.5" x2="456" y1="152.4199" y2="152.4199"/><text fill="#000000" font-family="sans-serif" font-size="13" lengthAdjust="spacingAndGlyphs" textLength="181" x="181.5" y="147.9883">getImporterForFile(Resource)</text><line style="stroke: #2980B9; stroke-width: 1.0;" x1="472" x2="514" y1="182.041" y2="182.041"/><line style="stroke: #2980B9; stroke-width: 1.0;" x1="514" x2="514" y1="182.041" y2="195.041"/><line style="stroke: #2980B9; stroke-width: 1.0;" x1="473" x2="514" y1="195.041" y2="195.041"/><polygon fill="#2980B9" points="483,191.041,473,195.041,483,199.041,479,195.041" style="stroke: #2980B9; stroke-width: 1.0;"/><text fill="#000000" font-family="sans-serif" font-size="13" lengthAdjust="spacingAndGlyphs" textLength="117" x="479" y="177.2988">getPossibleParsers</text><line style="stroke: #2980B9; stroke-width: 1.0;" x1="472" x2="514" y1="224.3516" y2="224.3516"/><line style="stroke: #2980B9; stroke-width: 1.0;" x1="514" x2="514" y1="224.3516" y2="237.3516"/><line style="stroke: #2980B9; stroke-width: 1.0;" x1="473" x2="514" y1="237.3516" y2="237.3516"/><polygon fill="#2980B9" points="483,233.3516,473,237.3516,483,241.3516,479,237.3516" style="stroke: #2980B9; stroke-width: 1.0;"/><text fill="#000000" font-family="sans-serif" font-size="13" lengthAdjust="spacingAndGlyphs" textLength="133" x="479" y="219.6094">getPossibleImporters</text><polygon fill="#2980B9" points="607,247.3516,617,251.3516,607,255.3516,611,251.3516" style="stroke: #2980B9; stroke-width: 1.0;"/><line style="stroke: #2980B9; stroke-width: 1.0;" x1="472" x2="613" y1="251.3516" y2="251.3516"/><polygon fill="#2980B9" points="762,261.3516,772,265.3516,762,269.3516,766,265.3516" style="stroke: #2980B9; stroke-width: 1.0;"/><line style="stroke: #2980B9; stroke-width: 1.0;" x1="472" x2="768" y1="265.3516" y2="265.3516"/><polygon fill="#2980B9" points="762,290.3516,772,294.3516,762,298.3516,766,294.3516" style="stroke: #2980B9; stroke-width: 1.0;"/><line style="stroke: #2980B9; stroke-width: 1.0;" x1="472" x2="768" y1="294.3516" y2="294.3516"/><text fill="#000000" font-family="sans-serif" font-size="13" lengthAdjust="spacingAndGlyphs" textLength="103" x="479" y="289.9199">setParser(Parser)</text><polygon fill="#2980B9" points="185.5,319.6621,175.5,323.6621,185.5,327.6621,181.5,323.6621" style="stroke: #2980B9; stroke-width: 1.0;"/><line style="stroke: #2980B9; stroke-width: 1.0;" x1="179.5" x2="466" y1="323.6621" y2="323.6621"/><text fill="#000000" font-family="sans-serif" font-size="13" lengthAdjust="spacingAndGlyphs" textLength="54" x="191.5" y="319.2305">importer</text><polygon fill="#2980B9" points="762,348.9727,772,352.9727,762,356.9727,766,352.9727" style="stroke: #2980B9; stroke-width: 1.0;"/><line style="stroke: #2980B9; stroke-width: 1.0;" x1="174.5" x2="768" y1="352.9727" y2="352.9727"/><text fill="#000000" font-family="sans-serif" font-size="13" lengthAdjust="spacingAndGlyphs" textLength="129" x="181.5" y="348.541">importFile(Resource)</text><polygon fill="#2980B9" points="640,378.2832,630,382.2832,640,386.2832,636,382.2832" style="stroke: #2980B9; stroke-width: 1.0;"/><line style="stroke: #2980B9; stroke-width: 1.0;" x1="634" x2="773" y1="382.2832" y2="382.2832"/><text fill="#000000" font-family="sans-serif" font-size="13" lengthAdjust="spacingAndGlyphs" textLength="121" x="646" y="377.8516">parseFile(Resource)</text><rect fill="#BDE3FF" filter="url(#f1)" height="3" style="stroke: #BDE3FF; stroke-width: 1.0;" width="835" x="3" y="411.249"/><line style="stroke: #000000; stroke-width: 1.0;" x1="3" x2="838" y1="411.249" y2="411.249"/><line style="stroke: #000000; stroke-width: 1.0;" x1="3" x2="838" y1="414.249" y2="414.249"/><rect fill="#BDE3FF" filter="url(#f1)" height="23.3105" style="stroke: #000000; stroke-width: 2.0;" width="190" x="325.5" y="400.5938"/><text fill="#000000" font-family="sans-serif" font-size="13" font-weight="bold" lengthAdjust="spacingAndGlyphs" textLength="172" x="331.5" y="417.1621">Rest is up to the Importer</text></g></svg>