<?xml version="1.0" encoding="UTF-8" standalone="yes"?><svg xmlns="http://www.w3.org/2000/svg" xmlns:xlink="http://www.w3.org/1999/xlink" height="593px" style="width:852px;height:593px;" version="1.1" viewBox="0 0 852 593" width="852px"><defs><filter height="300%" id="f1" width="300%" x="-1" y="-1"><feGaussianBlur result="blurOut" stdDeviation="2.0"/><feColorMatrix in="blurOut" result="blurOut2" type="matrix" values="0 0 0 0 0 0 0 0 0 0 0 0 0 0 0 0 0 0 .4 0"/><feOffset dx="4.0" dy="4.0" in="blurOut2" result="blurOut3"/><feBlend in="SourceGraphic" in2="blurOut3" mode="normal"/></filter></defs><g><rect fill="#FFFFFF" filter="url(#f1)" height="475.6582" style="stroke: #2980B9; stroke-width: 1.0;" width="10" x="164.5" y="69.4883"/><rect fill="#FFFFFF" filter="url(#f1)" height="201.8633" style="stroke: #2980B9; stroke-width: 1.0;" width="10" x="462" y="152.4199"/><rect fill="#FFFFFF" filter="url(#f1)" height="279.7949" style="stroke: #2980B9; stroke-width: 1.0;" width="10" x="619" y="266.3516"/><rect fill="#FFFFFF" filter="url(#f1)" height="250.4844" style="stroke: #2980B9; stroke-width: 1.0;" width="10" x="698.5" y="295.6621"/><rect fill="#FFFFFF" filter="url(#f1)" height="453.3477" style="stroke: #000000; stroke-width: 2.0;" width="780.5" x="57" y="84.7988"/><rect fill="#FFFFFF" filter="url(#f1)" height="88.9316" style="stroke: #000000; stroke-width: 2.0;" width="244" x="583.5" y="442.2148"/><line style="stroke: #2980B9; stroke-width: 1.0; stroke-dasharray: 5.0,5.0;" x1="32" x2="32" y1="38.4883" y2="555.1465"/><line style="stroke: #2980B9; stroke-width: 1.0; stroke-dasharray: 5.0,5.0;" x1="169" x2="169" y1="38.4883" y2="555.1465"/><line style="stroke: #2980B9; stroke-width: 1.0; stroke-dasharray: 5.0,5.0;" x1="352" x2="352" y1="38.4883" y2="555.1465"/><line style="stroke: #2980B9; stroke-width: 1.0; stroke-dasharray: 5.0,5.0;" x1="467" x2="467" y1="38.4883" y2="555.1465"/><line style="stroke: #2980B9; stroke-width: 1.0; stroke-dasharray: 5.0,5.0;" x1="623.5" x2="623.5" y1="38.4883" y2="555.1465"/><line style="stroke: #2980B9; stroke-width: 1.0; stroke-dasharray: 5.0,5.0;" x1="703.5" x2="703.5" y1="38.4883" y2="555.1465"/><rect fill="#BDE3FF" filter="url(#f1)" height="30.4883" style="stroke: #2980B9; stroke-width: 1.5;" width="45" x="8" y="3"/><text fill="#000000" font-family="sans-serif" font-size="14" lengthAdjust="spacingAndGlyphs" textLength="31" x="15" y="23.5352">User</text><rect fill="#BDE3FF" filter="url(#f1)" height="30.4883" style="stroke: #2980B9; stroke-width: 1.5;" width="45" x="8" y="554.1465"/><text fill="#000000" font-family="sans-serif" font-size="14" lengthAdjust="spacingAndGlyphs" textLength="31" x="15" y="574.6816">User</text><rect fill="#BDE3FF" filter="url(#f1)" height="30.4883" style="stroke: #2980B9; stroke-width: 1.5;" width="201" x="67" y="3"/><text fill="#000000" font-family="sans-serif" font-size="14" lengthAdjust="spacingAndGlyphs" textLength="187" x="74" y="23.5352">ImportCommandController</text><rect fill="#BDE3FF" filter="url(#f1)" height="30.4883" style="stroke: #2980B9; stroke-width: 1.5;" width="201" x="67" y="554.1465"/><text fill="#000000" font-family="sans-serif" font-size="14" lengthAdjust="spacingAndGlyphs" textLength="187" x="74" y="574.6816">ImportCommandController</text><rect fill="#BDE3FF" filter="url(#f1)" height="30.4883" style="stroke: #2980B9; stroke-width: 1.5;" width="137" x="282" y="3"/><text fill="#000000" font-family="sans-serif" font-size="14" lengthAdjust="spacingAndGlyphs" textLength="123" x="289" y="23.5352">ResourceManager</text><rect fill="#BDE3FF" filter="url(#f1)" height="30.4883" style="stroke: #2980B9; stroke-width: 1.5;" width="137" x="282" y="554.1465"/><text fill="#000000" font-family="sans-serif" font-size="14" lengthAdjust="spacingAndGlyphs" textLength="123" x="289" y="574.6816">ResourceManager</text><rect fill="#BDE3FF" filter="url(#f1)" height="30.4883" style="stroke: #2980B9; stroke-width: 1.5;" width="64" x="433" y="3"/><text fill="#000000" font-family="sans-serif" font-size="14" lengthAdjust="spacingAndGlyphs" textLength="50" x="440" y="23.5352">Factory</text><rect fill="#BDE3FF" filter="url(#f1)" height="30.4883" style="stroke: #2980B9; stroke-width: 1.5;" width="64" x="433" y="554.1465"/><text fill="#000000" font-family="sans-serif" font-size="14" lengthAdjust="spacingAndGlyphs" textLength="50" x="440" y="574.6816">Factory</text><rect fill="#BDE3FF" filter="url(#f1)" height="30.4883" style="stroke: #2980B9; stroke-width: 1.5;" width="57" x="593.5" y="3"/><text fill="#000000" font-family="sans-serif" font-size="14" lengthAdjust="spacingAndGlyphs" textLength="43" x="600.5" y="23.5352">Parser</text><rect fill="#BDE3FF" filter="url(#f1)" height="30.4883" style="stroke: #2980B9; stroke-width: 1.5;" width="57" x="593.5" y="554.1465"/><text fill="#000000" font-family="sans-serif" font-size="14" lengthAdjust="spacingAndGlyphs" textLength="43" x="600.5" y="574.6816">Parser</text><rect fill="#BDE3FF" filter="url(#f1)" height="30.4883" style="stroke: #2980B9; stroke-width: 1.5;" width="74" x="664.5" y="3"/><text fill="#000000" font-family="sans-serif" font-size="14" lengthAdjust="spacingAndGlyphs" textLength="60" x="671.5" y="23.5352">Importer</text><rect fill="#BDE3FF" filter="url(#f1)" height="30.4883" style="stroke: #2980B9; stroke-width: 1.5;" width="74" x="664.5" y="554.1465"/><text fill="#000000" font-family="sans-serif" font-size="14" lengthAdjust="spacingAndGlyphs" textLength="60" x="671.5" y="574.6816">Importer</text><rect fill="#FFFFFF" filter="url(#f1)" height="475.6582" style="stroke: #2980B9; stroke-width: 1.0;" width="10" x="164.5" y="69.4883"/><rect fill="#FFFFFF" filter="url(#f1)" height="201.8633" style="stroke: #2980B9; stroke-width: 1.0;" width="10" x="462" y="152.4199"/><rect fill="#FFFFFF" filter="url(#f1)" height="279.7949" style="stroke: #2980B9; stroke-width: 1.0;" width="10" x="619" y="266.3516"/><rect fill="#FFFFFF" filter="url(#f1)" height="250.4844" style="stroke: #2980B9; stroke-width: 1.0;" width="10" x="698.5" y="295.6621"/><polygon fill="#2980B9" points="152.5,65.4883,162.5,69.4883,152.5,73.4883,156.5,69.4883" style="stroke: #2980B9; stroke-width: 1.0;"/><line style="stroke: #2980B9; stroke-width: 1.0;" x1="32.5" x2="158.5" y1="69.4883" y2="69.4883"/><text fill="#000000" font-family="sans-serif" font-size="13" lengthAdjust="spacingAndGlyphs" textLength="27" x="39.5" y="65.0566">files</text><rect fill="none" height="453.3477" style="stroke: #000000; stroke-width: 2.0;" width="780.5" x="57" y="84.7988"/><polygon fill="#BDE3FF" points="57,84.7988,131,84.7988,131,91.7988,121,101.7988,57,101.7988,57,84.7988" style="stroke: #000000; stroke-width: 2.0;"/><text fill="#000000" font-family="sans-serif" font-size="13" font-weight="bold" lengthAdjust="spacingAndGlyphs" textLength="29" x="72" y="98.3672">loop</text><text fill="#000000" font-family="sans-serif" font-size="11" font-weight="bold" lengthAdjust="spacingAndGlyphs" textLength="77" x="146" y="97.4336">[for each file]</text><polygon fill="#2980B9" points="340.5,119.1094,350.5,123.1094,340.5,127.1094,344.5,123.1094" style="stroke: #2980B9; stroke-width: 1.0;"/><line style="stroke: #2980B9; stroke-width: 1.0;" x1="174.5" x2="346.5" y1="123.1094" y2="123.1094"/><text fill="#000000" font-family="sans-serif" font-size="13" lengthAdjust="spacingAndGlyphs" textLength="127" x="181.5" y="118.6777">importResource(file)</text><polygon fill="#2980B9" points="450,148.4199,460,152.4199,450,156.4199,454,152.4199" style="stroke: #2980B9; stroke-width: 1.0;"/><line style="stroke: #2980B9; stroke-width: 1.0;" x1="174.5" x2="456" y1="152.4199" y2="152.4199"/><text fill="#000000" font-family="sans-serif" font-size="13" lengthAdjust="spacingAndGlyphs" textLength="181" x="181.5" y="147.9883">getImporterForFile(Resource)</text><line style="stroke: #2980B9; stroke-width: 1.0;" x1="472" x2="514" y1="182.041" y2="182.041"/><line style="stroke: #2980B9; stroke-width: 1.0;" x1="514" x2="514" y1="182.041" y2="195.041"/><line style="stroke: #2980B9; stroke-width: 1.0;" x1="473" x2="514" y1="195.041" y2="195.041"/><polygon fill="#2980B9" points="483,191.041,473,195.041,483,199.041,479,195.041" style="stroke: #2980B9; stroke-width: 1.0;"/><text fill="#000000" font-family="sans-serif" font-size="13" lengthAdjust="spacingAndGlyphs" textLength="117" x="479" y="177.2988">getPossibleParsers</text><line style="stroke: #2980B9; stroke-width: 1.0;" x1="472" x2="514" y1="224.3516" y2="224.3516"/><line style="stroke: #2980B9; stroke-width: 1.0;" x1="514" x2="514" y1="224.3516" y2="237.3516"/><line style="stroke: #2980B9; stroke-width: 1.0;" x1="473" x2="514" y1="237.3516" y2="237.3516"/><polygon fill="#2980B9" points="483,233.3516,473,237.3516,483,241.3516,479,237.3516" style="stroke: #2980B9; stroke-width: 1.0;"/><text fill="#000000" font-family="sans-serif" font-size="13" lengthAdjust="spacingAndGlyphs" textLength="133" x="479" y="219.6094">getPossibleImporters</text><polygon fill="#2980B9" points="607,262.3516,617,266.3516,607,270.3516,611,266.3516" style="stroke: #2980B9; stroke-width: 1.0;"/><line style="stroke: #2980B9; stroke-width: 1.0;" x1="472" x2="613" y1="266.3516" y2="266.3516"/><text fill="#000000" font-family="sans-serif" font-size="13" lengthAdjust="spacingAndGlyphs" textLength="90" x="479" y="261.9199">new(Resource)</text><polygon fill="#2980B9" points="686.5,291.6621,696.5,295.6621,686.5,299.6621,690.5,295.6621" style="stroke: #2980B9; stroke-width: 1.0;"/><line style="stroke: #2980B9; stroke-width: 1.0;" x1="472" x2="692.5" y1="295.6621" y2="295.6621"/><text fill="#000000" font-family="sans-serif" font-size="13" lengthAdjust="spacingAndGlyphs" textLength="25" x="479" y="291.2305">new</text><polygon fill="#2980B9" points="686.5,320.9727,696.5,324.9727,686.5,328.9727,690.5,324.9727" style="stroke: #2980B9; stroke-width: 1.0;"/><line style="stroke: #2980B9; stroke-width: 1.0;" x1="472" x2="692.5" y1="324.9727" y2="324.9727"/><text fill="#000000" font-family="sans-serif" font-size="13" lengthAdjust="spacingAndGlyphs" textLength="103" x="479" y="320.541">setParser(Parser)</text><polygon fill="#2980B9" points="185.5,350.2832,175.5,354.2832,185.5,358.2832,181.5,354.2832" style="stroke: #2980B9; stroke-width: 1.0;"/><line style="stroke: #2980B9; stroke-width: 1.0;" x1="179.5" x2="466" y1="354.2832" y2="354.2832"/><text fill="#000000" font-family="sans-serif" font-size="13" lengthAdjust="spacingAndGlyphs" textLength="54" x="191.5" y="349.8516">importer</text><polygon fill="#2980B9" points="686.5,379.5938,696.5,383.5938,686.5,387.5938,690.5,383.5938" style="stroke: #2980B9; stroke-width: 1.0;"/><line style="stroke: #2980B9; stroke-width: 1.0;" x1="174.5" x2="692.5" y1="383.5938" y2="383.5938"/><text fill="#000000" font-family="sans-serif" font-size="13" lengthAdjust="spacingAndGlyphs" textLength="42" x="181.5" y="379.1621">import</text><rect fill="#BDE3FF" filter="url(#f1)" height="3" style="stroke: #BDE3FF; stroke-width: 1.0;" width="844.5" x="3" y="412.5596"/><line style="stroke: #000000; stroke-width: 1.0;" x1="3" x2="847.5" y1="412.5596" y2="412.5596"/><line style="stroke: #000000; stroke-width: 1.0;" x1="3" x2="847.5" y1="415.5596" y2="415.5596"/><rect fill="#BDE3FF" filter="url(#f1)" height="23.3105" style="stroke: #000000; stroke-width: 2.0;" width="190" x="330.25" y="401.9043"/><text fill="#000000" font-family="sans-serif" font-size="13" font-weight="bold" lengthAdjust="spacingAndGlyphs" textLength="172" x="336.25" y="418.4727">Rest is up to the Importer</text><rect fill="none" height="88.9316" style="stroke: #000000; stroke-width: 2.0;" width="244" x="583.5" y="442.2148"/><polygon fill="#BDE3FF" points="583.5,442.2148,657.5,442.2148,657.5,449.2148,647.5,459.2148,583.5,459.2148,583.5,442.2148" style="stroke: #000000; stroke-width: 2.0;"/><text fill="#000000" font-family="sans-serif" font-size="13" font-weight="bold" lengthAdjust="spacingAndGlyphs" textLength="29" x="598.5" y="455.7832">loop</text><text fill="#000000" font-family="sans-serif" font-size="11" font-weight="bold" lengthAdjust="spacingAndGlyphs" textLength="137" x="672.5" y="454.8496">[for Importer -&gt; Parser]</text><polygon fill="#2980B9" points="686.5,476.5254,696.5,480.5254,686.5,484.5254,690.5,480.5254" style="stroke: #2980B9; stroke-width: 1.0;"/><line style="stroke: #2980B9; stroke-width: 1.0;" x1="629" x2="692.5" y1="480.5254" y2="480.5254"/><text fill="#000000" font-family="sans-serif" font-size="13" lengthAdjust="spacingAndGlyphs" textLength="25" x="636" y="476.0938">Info</text><line style="stroke: #2980B9; stroke-width: 1.0;" x1="708.5" x2="750.5" y1="510.1465" y2="510.1465"/><line style="stroke: #2980B9; stroke-width: 1.0;" x1="750.5" x2="750.5" y1="510.1465" y2="523.1465"/><line style="stroke: #2980B9; stroke-width: 1.0;" x1="709.5" x2="750.5" y1="523.1465" y2="523.1465"/><polygon fill="#2980B9" points="719.5,519.1465,709.5,523.1465,719.5,527.1465,715.5,523.1465" style="stroke: #2980B9; stroke-width: 1.0;"/><text fill="#000000" font-family="sans-serif" font-size="13" lengthAdjust="spacingAndGlyphs" textLength="100" x="715.5" y="505.4043">handleInfo(Info)</text></g></svg>